<svg width="80" height="80" viewBox="0 0 80 80" fill="none" xmlns="http://www.w3.org/2000/svg">
<circle cx="40" cy="40" r="40" fill="#06942A" fill-opacity="0.1"/>
<path d="M57.2857 58.1429H41.5714C40.3929 58.1429 38.7143 59.3929 38.7143 61V28.1429C38.7143 26.9643 39.6786 26 40.8571 26H57.2857C58.4643 26 59.4286 26.9643 59.4286 28.1429V56C59.4286 57.1786 58.4643 58.1429 57.2857 58.1429Z" fill="#06942A"/>
<path d="M20.1429 58.1429H35.8571C37.0357 58.1429 38.7143 59.3929 38.7143 61V28.1429C38.7143 26.9643 37.75 26 36.5714 26H20.1429C18.9643 26 18 26.9643 18 28.1429V56C18 57.1786 18.9643 58.1429 20.1429 58.1429Z" fill="#76C48A"/>
</svg>
