<svg width="80" height="80" viewBox="0 0 80 80" fill="none" xmlns="http://www.w3.org/2000/svg">
<circle cx="40" cy="40" r="40" fill="#06942A" fill-opacity="0.1"/>
<path d="M22 16H55.2449V63.0204H22V16Z" fill="#76C48A"/>
<path d="M38.6225 16H55.2449V63.0204H38.6225V16Z" fill="#06942A"/>
<path d="M30.3571 24.3572V54.6633H58V24.3572H30.3571Z" fill="#575F64"/>
<path d="M44.1326 24.3572H58V54.6633H44.1326V24.3572Z" fill="#474F54"/>
<path d="M33.1122 38.1327H38.6224V43.6429H33.1122V38.1327Z" fill="white"/>
<path d="M33.1122 46.3979H38.6224V51.9082H33.1122V46.3979Z" fill="white"/>
<path d="M49.6429 38.1327H55.2449V51.9082H49.6429V38.1327Z" fill="#76C48A"/>
<path d="M33.1122 27.1123H55.2449V35.3776H33.1122V27.1123Z" fill="white"/>
<path d="M44.1326 27.1123H55.2449V35.3776H44.1326V27.1123Z" fill="white"/>
<path d="M41.3775 46.3979H46.8878V51.9082H41.3775V46.3979Z" fill="white"/>
<path d="M41.3775 38.1327H46.8878V43.6429H41.3775V38.1327Z" fill="white"/>
<path d="M44.1326 38.1327H46.8877V43.6429H44.1326V38.1327Z" fill="white"/>
<path d="M44.1326 46.3979H46.8877V51.9082H44.1326V46.3979Z" fill="white"/>
</svg>
