<svg width="80" height="80" viewBox="0 0 80 80" fill="none" xmlns="http://www.w3.org/2000/svg">
<circle cx="40" cy="40" r="40" fill="#06942A" fill-opacity="0.1"/>
<path d="M57.4166 26.1667H21.5833C20.5938 26.1667 19.7916 26.9689 19.7916 27.9584V53.0417C19.7916 54.0313 20.5938 54.8334 21.5833 54.8334H57.4166C58.4062 54.8334 59.2083 54.0313 59.2083 53.0417V27.9584C59.2083 26.9689 58.4062 26.1667 57.4166 26.1667Z" fill="#76C48A"/>
<path d="M25.1666 51.2501C24.6915 51.2501 24.2357 51.0613 23.8997 50.7253C23.5637 50.3893 23.375 49.9336 23.375 49.4584V26.1667H21.5833C21.1081 26.1667 20.6524 26.3555 20.3164 26.6915C19.9804 27.0275 19.7916 27.4832 19.7916 27.9584V53.0417C19.7916 53.5169 19.9804 53.9726 20.3164 54.3087C20.6524 54.6447 21.1081 54.8334 21.5833 54.8334H57.4166C57.8918 54.8334 58.3475 54.6447 58.6835 54.3087C59.0195 53.9726 59.2083 53.5169 59.2083 53.0417V51.2501H25.1666Z" fill="#76C48A"/>
<path d="M38 29H59.5V53C59.5 54.1046 58.6046 55 57.5 55H38V29Z" fill="#06942A"/>
<path d="M18 26H61V29.5833H18V26Z" fill="#465A61"/>
<path d="M18 26H38V29.58H18V26Z" fill="#596C76"/>
<path d="M41.2916 35.125H55.625V38.7083H41.2916V35.125Z" fill="white"/>
<path d="M41.2917 40.5H52.0417V44.0833H41.2917V40.5Z" fill="white"/>
<path d="M41.2917 45.875H48.4583V49.4583H41.2917V45.875Z" fill="white"/>
<path d="M30.5417 35.125C29.1242 35.125 27.7386 35.5453 26.5601 36.3328C25.3815 37.1203 24.463 38.2396 23.9205 39.5491C23.3781 40.8586 23.2362 42.2996 23.5127 43.6898C23.7892 45.08 24.4718 46.357 25.4741 47.3593C26.4763 48.3615 27.7533 49.0441 29.1435 49.3206C30.5337 49.5972 31.9747 49.4552 33.2842 48.9128C34.5938 48.3704 35.7131 47.4518 36.5005 46.2733C37.288 45.0947 37.7083 43.7091 37.7083 42.2917H30.5417V35.125Z" fill="#E1EBF0"/>
</svg>
