<svg width="205" height="51" viewBox="0 0 205 51" fill="none" xmlns="http://www.w3.org/2000/svg">
<path d="M108.23 1.67157C108.258 1.62418 108.291 1.62418 108.329 1.67157L108.271 1.71896L108.23 1.67157Z" fill="#0124DD"/>
<path d="M58.7421 18.2236C59.3647 16.341 59.9549 14.5617 60.5322 12.7975C60.6033 12.5821 60.7476 12.5325 60.935 12.4981C64.052 11.9165 67.1819 11.421 70.3656 11.5783C72.6123 11.6838 74.7729 12.1426 76.7073 13.3489C79.331 14.9817 80.5308 17.4417 80.701 20.4574C80.8 22.1915 80.5179 23.904 80.2701 25.6014C79.7553 29.0609 79.2254 32.5161 78.7278 35.9755C78.7142 36.1206 78.6619 36.2593 78.5762 36.3772C78.4906 36.4951 78.3748 36.5877 78.241 36.6454C76.2118 37.7591 74.0103 38.3687 71.7485 38.7392C68.9495 39.2242 66.0944 39.2968 63.2743 38.9546C60.9242 38.6595 58.7335 37.9293 57.0275 36.2017C56.2871 35.4436 55.7124 34.5399 55.3397 33.5479C54.9671 32.556 54.8047 31.4974 54.8628 30.4393C54.9209 29.3813 55.1983 28.3468 55.6774 27.4016C56.1565 26.4565 56.8267 25.6212 57.6457 24.9487C59.3948 23.5098 61.4627 22.7946 63.6405 22.3315C66.9385 21.6336 70.2665 21.7283 73.5968 21.9825C74.0125 22.0127 74.103 21.8856 74.1224 21.5151C74.271 18.9173 72.7114 17.0518 69.9736 16.5499C68.0737 16.2009 66.2082 16.5025 64.3428 16.8084C62.4394 17.1216 60.5658 17.595 58.7421 18.2236ZM70.3915 26.0602C69.206 26.0525 68.0217 26.1397 66.8501 26.3209C65.5835 26.5363 64.3535 26.8702 63.3325 27.7103C62.1779 28.6602 61.8699 29.9354 62.0982 31.3399C62.3136 32.6216 63.2097 33.3238 64.3708 33.7374C64.903 33.9246 65.4566 34.044 66.0187 34.0928C68.0952 34.2932 70.1114 33.9313 72.1147 33.4358C72.2506 33.4179 72.3752 33.3508 72.4649 33.2472C72.5547 33.1436 72.6033 33.0107 72.6016 32.8736C72.8751 30.838 73.1466 28.8002 73.4481 26.7689C73.4998 26.4178 73.3835 26.351 73.0905 26.295C72.1982 26.1477 71.2958 26.0692 70.3915 26.0602Z" fill="#114185"/>
<path d="M154.909 32.4105C154.565 33.4574 154.263 34.3944 153.944 35.3314C153.69 36.1005 153.419 36.863 153.178 37.6385C153.154 37.7572 153.097 37.8663 153.012 37.9522C152.926 38.0381 152.818 38.0968 152.699 38.121C149.404 38.9999 146.065 39.4759 142.661 39.0473C138.784 38.5583 135.579 36.8932 133.614 33.3368C132.406 31.1353 132.022 28.7378 132.186 26.267C132.498 21.5668 134.456 17.67 138.097 14.6521C140.309 12.8169 142.89 11.8734 145.729 11.5933C147.687 11.4016 149.634 11.4382 151.545 11.9703C155.435 13.0473 158.029 16.0738 158.526 20.0805C158.813 22.3832 158.526 24.645 158.154 26.9089C158.108 27.1911 157.966 27.1997 157.751 27.1997C156.706 27.1997 155.659 27.1997 154.614 27.1997C149.588 27.1997 144.562 27.1997 139.536 27.1997C139.131 27.1997 139.012 27.2988 139.006 27.7146C138.95 31.1008 140.82 33.3368 144.148 33.9076C146.608 34.3384 149.001 33.9658 151.39 33.4445C152.584 33.1773 153.76 32.8319 154.909 32.4105ZM146.121 22.8032H150.946C152.419 22.8032 152.419 22.8032 152.469 21.3298C152.57 18.3464 150.746 16.4013 147.779 16.2354C144.232 16.0351 140.886 18.6049 140.025 22.4177C139.954 22.7343 140.025 22.8119 140.348 22.8097C142.267 22.7946 144.182 22.8032 146.121 22.8032Z" fill="#114185"/>
<path d="M167.296 39.1334C164.133 39.1124 160.993 38.5889 157.994 37.5825C157.695 37.4791 157.615 37.3929 157.723 37.0676C158.215 35.5756 158.687 34.0763 159.138 32.5699C159.25 32.1994 159.381 32.2295 159.679 32.3717C162.559 33.7806 165.812 34.2391 168.969 33.6814C169.71 33.5686 170.413 33.2806 171.02 32.8413C171.301 32.6467 171.534 32.3915 171.704 32.0947C171.873 31.7979 171.973 31.4669 171.998 31.1261C172.022 30.7853 171.97 30.4434 171.844 30.1255C171.719 29.8076 171.524 29.5219 171.274 29.2892C170.727 28.7824 170.112 28.3533 169.447 28.014C167.8 27.092 166.124 26.2282 164.558 25.1598C160.351 22.2798 160.863 16.285 165.006 13.6548C166.841 12.4894 168.851 11.9057 170.986 11.6838C174.544 11.3155 177.984 11.9251 181.375 12.9461C181.685 13.0387 181.765 13.1227 181.646 13.4523C181.136 14.8676 180.642 16.2914 180.179 17.7239C180.056 18.1008 179.91 18.0728 179.619 17.9393C177.498 16.9386 175.176 16.4375 172.832 16.4745C171.694 16.5025 170.585 16.6899 169.622 17.362C169.213 17.623 168.9 18.0112 168.733 18.4669C168.566 18.9226 168.553 19.4206 168.696 19.8844C168.881 20.4046 169.231 20.8501 169.693 21.1532C170.69 21.9028 171.832 22.409 172.924 23.0079C174.26 23.7056 175.536 24.514 176.737 25.4248C180.287 28.2423 179.927 33.6103 176.522 36.3374C174.324 38.093 171.752 38.7952 169.017 39.0451C168.33 39.1054 167.647 39.1162 167.296 39.1334Z" fill="#114185"/>
<path d="M190.532 39.1334C187.411 39.1033 184.314 38.585 181.353 37.5975C181.011 37.4834 180.922 37.3821 181.049 37.0202C181.536 35.5598 181.997 34.0907 182.445 32.6173C182.553 32.2597 182.661 32.208 183.01 32.376C185.878 33.7718 189.112 34.2314 192.255 33.69C192.929 33.5843 193.574 33.344 194.153 32.9835C195.581 32.0723 195.755 30.3986 194.549 29.2267C194.043 28.7721 193.481 28.3847 192.875 28.0743C191.152 27.0963 189.362 26.2218 187.74 25.0586C183.998 22.3552 184.464 17.4632 186.751 15.0076C188.294 13.3554 190.241 12.4679 192.401 11.9918C195.269 11.3456 198.134 11.5007 200.996 12.0306C202.203 12.246 203.383 12.5734 204.564 12.8922C204.956 13.0021 205.098 13.1184 204.932 13.5665C204.434 14.9171 203.982 16.2828 203.542 17.6593C203.42 18.0362 203.297 18.0901 202.926 17.9285C200.834 16.946 198.547 16.4461 196.236 16.4659C195.159 16.4853 194.118 16.6447 193.179 17.209C192.289 17.7411 191.839 18.5144 191.973 19.5785C192.057 20.2549 192.464 20.7267 192.977 21.1144C194.054 21.9308 195.292 22.4693 196.464 23.1156C197.8 23.8544 199.118 24.6234 200.283 25.6165C203.549 28.4168 203.181 33.6082 199.904 36.2792C198.144 37.716 196.102 38.4613 193.899 38.8469C192.785 39.0278 191.66 39.1236 190.532 39.1334Z" fill="#114185"/>
<path d="M105.193 32.7918C105.083 33.438 104.805 34.0174 104.601 34.6271C104.211 35.7881 103.795 36.9384 103.409 38.1016C103.381 38.2179 103.317 38.3223 103.225 38.3997C103.134 38.4771 103.02 38.5235 102.901 38.5324C100.316 38.9632 97.7032 39.2368 95.0774 39.0386C91.1591 38.7435 87.7987 37.3154 85.4895 33.9765C83.861 31.6242 83.2859 28.951 83.4302 26.1356C83.6715 21.4397 85.6618 17.5968 89.3303 14.6543C91.4327 12.9698 93.9056 12.1426 96.54 11.798C99.8011 11.3358 103.122 11.5343 106.305 12.3817C106.912 12.5476 107.498 12.7802 108.095 12.9741C108.31 13.043 108.366 13.1357 108.286 13.3705C107.778 14.8568 107.274 16.3474 106.798 17.8445C106.692 18.1741 106.544 18.1073 106.33 18.0233C104.809 17.3996 103.199 17.0222 101.559 16.9053C98.0113 16.705 94.9266 17.6808 92.7122 20.6341C90.6378 23.4021 90.3168 27.9989 92.5377 30.7777C93.9185 32.501 95.7408 33.4143 97.9036 33.6663C100.236 33.9377 102.492 33.4875 104.719 32.8478C104.861 32.8068 105.006 32.7788 105.15 32.7444L105.193 32.7918Z" fill="#114185"/>
<path d="M129.75 32.7616C129.254 34.1876 128.686 35.5985 128.278 37.0547C127.983 38.1167 127.486 38.6207 126.327 38.7371C123.096 39.0602 119.865 39.4221 116.633 38.5669C111.552 37.2163 108.232 33.1623 107.957 27.8934C107.655 22.1678 109.848 17.5925 114.46 14.2084C116.399 12.7889 118.66 12.1168 121.021 11.8087C124.282 11.3481 127.601 11.5458 130.784 12.3903C131.374 12.5519 131.94 12.7932 132.528 12.9633C132.836 13.0538 132.845 13.1938 132.744 13.4631C132.251 14.9042 131.762 16.3453 131.303 17.7971C131.193 18.1439 131.062 18.131 130.779 18.0233C128.522 17.1617 126.213 16.6942 123.776 16.9462C119.638 17.39 116.489 20.1257 115.694 24.1517C115.121 27.0576 115.647 29.7157 117.962 31.7729C119.809 33.41 122.055 33.8667 124.448 33.7266C126.137 33.6155 127.805 33.2971 129.416 32.7788C129.513 32.7616 129.599 32.6819 129.75 32.7616Z" fill="#114185"/>
<path d="M47.6873 26.8335L20.8538 0V4.11863L43.5687 26.8335L43.5773 26.8422L23.9018 46.5177L23.8781 46.494L4.21556 26.8335L4.19833 26.8163L13.8508 17.1638H9.66111L0 26.8249L0.00861657 26.8335L23.8695 50.6944L23.8781 50.6858L47.7089 26.8551L47.6873 26.8335Z" fill="#FE6309"/>
<path d="M20.8452 6.95341V11.072L36.6153 26.8422L23.9104 39.547L11.1948 26.8335L11.1776 26.8163L20.8301 17.1638H16.6404L6.97926 26.8249L6.98788 26.8335L21.8059 41.6516L23.8781 43.7238L25.9848 41.6192L40.7468 26.8551L20.8452 6.95341Z" fill="#FE6309"/>
<path d="M33.7913 26.8335L25.9224 18.956L23.8286 16.8622L21.7693 18.9216L13.8594 26.8249L21.7736 34.7391L23.8458 36.8113L25.9482 34.7068L33.8128 26.8551L33.7913 26.8335ZM23.8824 32.6496L18.0664 26.8335L18.0491 26.8163L23.8501 21.0153L29.6662 26.8314L23.8824 32.6496Z" fill="#FE6309"/>
</svg>
