<svg width="80" height="80" viewBox="0 0 80 80" fill="none" xmlns="http://www.w3.org/2000/svg">
<circle cx="40" cy="40" r="40" fill="#06942A" fill-opacity="0.1"/>
<path d="M45.7712 24.1094L43.6618 22H39H34.3382L32.2288 24.1094L30.7566 26.8559L33.7266 25.6071L35.2243 24.1094H39H42.7757L44.2734 25.6071L47.0697 24.9202L45.7712 24.1094Z" fill="#76C48A"/>
<path d="M44.2734 25.6071L47.0697 24.9202L45.7712 24.1094L43.6618 22H39V24.1094H42.7757L44.2734 25.6071Z" fill="#06942A"/>
<path d="M27.3984 24.1094V30.4375H33.7266V25.6071L32.2288 24.1094H27.3984Z" fill="#465A61"/>
<path d="M45.7712 24.1094L44.2734 25.6071V30.4375H50.6016V24.1094H45.7712Z" fill="#3B4A51"/>
<path d="M54.8906 35.7812V55.8906H50.6016V58H44.2734V55.8906H33.7266V58H27.3984V55.8906H23.1094V35.7812H54.8906Z" fill="#76C48A"/>
<path d="M54.8906 35.7812V55.8906H50.6016V58H44.2734V55.8906H39V35.7812H54.8906Z" fill="#06942A"/>
<path d="M42.1641 43.1641V41.0547H35.8359V43.1641H33.7266V49.4922H35.8359V51.6016H42.1641V49.4922H44.2734V43.1641H42.1641Z" fill="#F0F9FB"/>
<path d="M42.1641 43.1641H44.2734V49.4922H42.1641V51.6016H39V41.0547H42.1641V43.1641Z" fill="#D7F0F5"/>
<path d="M21 28.3281V36.8359H57V28.3281H21Z" fill="#596C76"/>
<path d="M39 28.3281H57V36.8359H39V28.3281Z" fill="#465A61"/>
</svg>
