<svg width="40" height="39" viewBox="0 0 40 39" fill="none" xmlns="http://www.w3.org/2000/svg">
<circle cx="19.5653" cy="19.5" r="19.5" fill="#06942A" fill-opacity="0.1"/>
<circle cx="19.5653" cy="19.5" r="19.5" fill="#06942A" fill-opacity="0.05"/>
<path d="M23.0653 11H15.0653C12.8562 11 11.0653 12.7909 11.0653 15V23C11.0653 25.2091 12.8562 27 15.0653 27H23.0653C25.2744 27 27.0653 25.2091 27.0653 23V15C27.0653 12.7909 25.2744 11 23.0653 11Z" stroke="#06942A" stroke-width="1.2" stroke-linecap="round" stroke-linejoin="round"/>
<path d="M22.2653 18.4958C22.364 19.1616 22.2503 19.8415 21.9403 20.439C21.6303 21.0364 21.1398 21.5209 20.5386 21.8235C19.9374 22.1261 19.2561 22.2314 18.5915 22.1245C17.927 22.0176 17.3131 21.7038 16.8372 21.2279C16.3612 20.7519 16.0475 20.1381 15.9405 19.4735C15.8336 18.809 15.9389 18.1277 16.2416 17.5265C16.5442 16.9252 17.0286 16.4347 17.6261 16.1247C18.2235 15.8147 18.9035 15.701 19.5693 15.7998C20.2484 15.9005 20.8772 16.2169 21.3626 16.7024C21.8481 17.1879 22.1646 17.8166 22.2653 18.4958Z" stroke="#06942A" stroke-width="1.2" stroke-linecap="round" stroke-linejoin="round"/>
<path d="M23.4653 14.6001H23.4743" stroke="#06942A" stroke-width="1.2" stroke-linecap="round" stroke-linejoin="round"/>
</svg>
