<svg width="80" height="80" viewBox="0 0 80 80" fill="none" xmlns="http://www.w3.org/2000/svg">
<circle cx="40" cy="40" r="40" fill="#06942A" fill-opacity="0.1"/>
<path d="M24 45.1858V47.4828C24 48.7396 25.019 49.7586 26.2759 49.7586H54.7241C55.981 49.7586 57 48.7396 57 47.4828V45.1858H24Z" fill="#06942A"/>
<path d="M54.7241 27H53.0172V41.7931C53.0172 42.4215 52.5077 42.931 51.8793 42.931H29.1207C28.4923 42.931 27.9828 42.4215 27.9828 41.7931V27H26.2759C25.019 27 24 28.019 24 29.2759V45.1858H57V29.2759C57 28.019 55.981 27 54.7241 27Z" fill="#76C48A"/>
<path d="M34.8103 53.1723H46.1896L45.0517 49.7585H35.9483L34.8103 53.1723Z" fill="#596C76"/>
<path d="M32.5345 53.1721C31.2776 53.1721 30.2586 54.1911 30.2586 55.448V56.5859H50.7414V55.448C50.7414 54.1911 49.7223 53.1721 48.4655 53.1721H32.5345Z" fill="#465A61"/>
<path d="M53.0172 27V41.7931C53.0153 42.4207 52.5069 42.9291 51.8793 42.931H29.1207C28.4931 42.9291 27.9847 42.4207 27.9828 41.7931V27H53.0172Z" fill="#76C48A"/>
<path d="M27.9828 27C26.7259 27 25.7069 28.019 25.7069 29.2759V45.1841H24V29.2759C24 28.019 25.019 27 26.2759 27H27.9828Z" fill="#06942A"/>
<path d="M27.9828 49.7588H26.2759C25.019 49.7588 24 48.7398 24 47.483V45.1843H25.7069V47.483C25.7069 48.7398 26.7259 49.7588 27.9828 49.7588Z" fill="#76C48A"/>
<path d="M37.6552 46.9141H38.7931V48.052H37.6552V46.9141Z" fill="#F1F2F2"/>
<path d="M39.9311 46.9138H41.069V48.0517H39.9311V46.9138Z" fill="#F1F2F2"/>
<path d="M42.2069 46.9138H43.3448V48.0517H42.2069V46.9138Z" fill="#F1F2F2"/>
</svg>
