<svg width="40" height="39" viewBox="0 0 40 39" fill="none" xmlns="http://www.w3.org/2000/svg">
<circle cx="19.5653" cy="19.5" r="19.5" fill="#06942A" fill-opacity="0.1"/>
<path d="M21.4653 14.6001C22.4201 14.6001 23.3358 14.9794 24.0109 15.6545C24.686 16.3296 25.0653 17.2453 25.0653 18.2001V22.4001H22.6653V18.2001C22.6653 17.8818 22.5389 17.5766 22.3138 17.3516C22.0888 17.1265 21.7836 17.0001 21.4653 17.0001C21.1471 17.0001 20.8418 17.1265 20.6168 17.3516C20.3917 17.5766 20.2653 17.8818 20.2653 18.2001V22.4001H17.8653V18.2001C17.8653 17.2453 18.2446 16.3296 18.9197 15.6545C19.5949 14.9794 20.5105 14.6001 21.4653 14.6001V14.6001Z" stroke="#06942A" stroke-width="1.2" stroke-linecap="round" stroke-linejoin="round"/>
<path d="M15.4653 15.1997H13.0653V22.3997H15.4653V15.1997Z" stroke="#06942A" stroke-width="1.2" stroke-linecap="round" stroke-linejoin="round"/>
<path d="M14.2653 13.4C14.928 13.4 15.4653 12.8627 15.4653 12.2C15.4653 11.5373 14.928 11 14.2653 11C13.6026 11 13.0653 11.5373 13.0653 12.2C13.0653 12.8627 13.6026 13.4 14.2653 13.4Z" stroke="#06942A" stroke-width="1.2" stroke-linecap="round" stroke-linejoin="round"/>
</svg>
