<svg width="24" height="27" viewBox="0 0 24 27" fill="none" xmlns="http://www.w3.org/2000/svg">
<path d="M16.505 5.42549C15.365 4.34038 13.765 3.74463 12.025 3.74463C10.285 3.74463 8.68498 4.34038 7.54498 5.42549C6.16498 6.74463 5.42498 8.72336 5.42498 11.1702C5.42498 16.5106 11.205 22.7872 11.465 23.0425C11.625 23.2127 11.825 23.2978 12.025 23.2978C12.225 23.2978 12.445 23.2127 12.585 23.0425C12.825 22.7872 18.625 16.5106 18.625 11.1702C18.605 8.72336 17.885 6.74463 16.505 5.42549ZM12.005 21.2127C11.465 20.5744 10.605 19.5106 9.765 18.234C7.965 15.5106 7.00499 13.0851 7.00499 11.1914C7.00499 5.87229 10.825 5.44676 12.005 5.44676C16.645 5.44676 17.005 9.85101 17.005 11.1914C17.005 14.9361 13.425 19.5531 12.005 21.2127ZM12.005 7.42548C10.245 7.42548 8.82498 8.97867 8.82498 10.8723C8.82498 12.7659 10.245 14.3191 12.005 14.3191C13.765 14.3191 15.185 12.7659 15.185 10.8723C15.185 8.9574 13.765 7.42548 12.005 7.42548ZM12.005 12.8085C11.025 12.8085 10.225 11.9361 10.225 10.851C10.225 9.76591 11.025 8.89357 12.005 8.89357C12.985 8.89357 13.785 9.76591 13.785 10.851C13.785 11.9361 12.985 12.8085 12.005 12.8085Z" fill="#C4C4C4"/>
</svg>
