<svg width="80" height="80" viewBox="0 0 80 80" fill="none" xmlns="http://www.w3.org/2000/svg">
<circle cx="40" cy="40" r="40" fill="#06942A" fill-opacity="0.1"/>
<path d="M41.1491 23.0007C41.128 23 41.107 23 41.0859 23C38.9948 23 36.9367 23.4669 35.1388 24.3486C32.7665 25.4673 30.7577 27.2202 29.3282 29.4181C27.8601 31.678 27.0831 34.302 27.0831 37.0062V39.2443L24.31 44.304C23.9127 45.0577 23.8966 45.8741 24.2657 46.4872C24.5997 47.042 25.2114 47.3598 25.9441 47.3598H27.0831V52.2774C27.0831 53.9741 28.4563 55.3543 30.1438 55.3543L30.1712 55.3522L33.9302 54.7777V58.4016C33.9302 58.7321 34.1973 59 34.5278 59H45.2983C48.1902 59 50.5436 56.6452 50.5436 53.7505V47.2487C53.3814 44.6021 55.0077 40.8741 55.0077 37.0055C54.9775 29.3042 48.7668 23.0345 41.1491 23.0007Z" fill="#76C48A"/>
<path d="M55.0078 37.0056C55.0078 40.8742 53.3814 44.6021 50.5436 47.2487V53.7505C50.5436 56.6453 48.1903 59 45.2983 59H41.1492V23.0007C48.7668 23.0345 54.9775 29.3042 55.0078 37.0056Z" fill="#06942A"/>
<path d="M45.5247 37.1405C45.5247 38.7619 44.643 40.1773 43.3323 40.9332L43.1116 42.7775L41.1491 44.1795L41.1428 44.1837L39.186 42.7775L38.9652 40.9332C37.6307 40.1632 36.7405 38.7106 36.7729 37.0533C36.82 34.6564 38.7536 32.7657 41.1491 32.7664H41.1723C43.5784 32.779 45.5247 34.733 45.5247 37.1405Z" fill="#F0F9FB"/>
<path d="M42.1975 28.3992V29.2767C42.1975 29.8575 41.7292 30.3278 41.1492 30.3314H41.1428C40.5606 30.3314 40.0881 29.8596 40.0881 29.2767V28.3992C40.0881 27.817 40.5606 27.3445 41.1428 27.3445H41.1492C41.7292 27.348 42.1975 27.8191 42.1975 28.3992Z" fill="#F0F9FB"/>
<path d="M33.5204 35.7827H32.6426C32.0601 35.7827 31.5879 36.2549 31.5879 36.8374C31.5879 37.4199 32.0601 37.8921 32.6426 37.8921H33.5204C34.1028 37.8921 34.575 37.4199 34.575 36.8374C34.575 36.2549 34.1028 35.7827 33.5204 35.7827Z" fill="#F0F9FB"/>
<path d="M49.6332 35.7827H48.7554C48.1729 35.7827 47.7007 36.2549 47.7007 36.8374C47.7007 37.4199 48.1729 37.8921 48.7554 37.8921H49.6332C50.2156 37.8921 50.6878 37.4199 50.6878 36.8374C50.6878 36.2549 50.2156 35.7827 49.6332 35.7827Z" fill="#D7F0F5"/>
<path d="M35.6016 30.2978C35.1896 29.886 34.5218 29.8861 34.1101 30.2981C33.6984 30.7101 33.6985 31.3779 34.1105 31.7897L34.7312 32.4101C34.9371 32.616 35.207 32.7189 35.4768 32.7189C35.7468 32.7189 36.0168 32.6158 36.2227 32.4098C36.6345 31.9978 36.6343 31.33 36.2224 30.9182L35.6016 30.2978Z" fill="#F0F9FB"/>
<path d="M48.1758 30.2983C47.7641 29.8864 47.0963 29.8862 46.6843 30.298L46.0636 30.9184C45.6516 31.3302 45.6515 31.998 46.0632 32.4099C46.2692 32.616 46.5392 32.719 46.8092 32.719C47.079 32.719 47.3489 32.6161 47.5548 32.4103L48.1755 31.7899C48.5874 31.378 48.5876 30.7103 48.1758 30.2983Z" fill="#D7F0F5"/>
<path d="M41.1492 30.3314V27.3445C41.7292 27.348 42.1975 27.8191 42.1975 28.3992V29.2767C42.1975 29.8575 41.7292 30.3278 41.1492 30.3314Z" fill="#D7F0F5"/>
<path d="M45.5247 37.1405C45.5247 38.7619 44.643 40.1773 43.3324 40.9332L43.1116 42.7775L41.1492 44.1795V32.7664H41.1724C43.5785 32.779 45.5247 34.733 45.5247 37.1405Z" fill="#D7F0F5"/>
<path d="M43.1115 42.7773L42.9287 44.3024C42.8746 44.7531 42.6566 45.1483 42.3388 45.4302C42.0203 45.7122 41.6026 45.8816 41.1491 45.8816H41.1484C40.2407 45.8816 39.4757 45.2038 39.3681 44.3024L39.186 42.7773H43.1115Z" fill="#596C76"/>
<path d="M43.1116 42.7773L42.9288 44.3024C42.8746 44.7531 42.6567 45.1483 42.3389 45.4302C42.0203 45.7122 41.6027 45.8816 41.1492 45.8816V42.7773H43.1116Z" fill="#465A61"/>
</svg>
