<svg width="80" height="80" viewBox="0 0 80 80" fill="none" xmlns="http://www.w3.org/2000/svg">
<circle cx="40" cy="40" r="40" fill="#06942A" fill-opacity="0.1"/>
<path d="M44.7673 20.4745C44.7673 23.0892 42.6378 25.2169 40.021 25.2169C37.4042 25.2169 35.2747 23.0892 35.2747 20.4745C35.2747 18.1533 38.6713 13.5861 39.3521 12.6948C39.5113 12.4862 39.7586 12.3636 40.021 12.3636C40.2835 12.3636 40.5308 12.4862 40.69 12.6948C41.3707 13.5861 44.7673 18.1533 44.7673 20.4745Z" fill="#465A61"/>
<path d="M29.0623 30.0497H50.9795V59.4783H29.0623V30.0497Z" fill="#06942A" fill-opacity="0.5"/>
<path d="M40.0209 30.0497H50.9796V59.4783H40.0209V30.0497Z" fill="#06942A"/>
<path d="M53.1318 30.0496C53.1318 30.9398 52.4101 31.6623 51.5184 31.6623H28.5225C27.6319 31.6623 26.9091 30.9398 26.9091 30.0496C26.9091 29.1583 27.6318 28.4369 28.5225 28.4369H51.5184C52.41 28.4369 53.1318 29.1583 53.1318 30.0496Z" fill="#596C76"/>
<path d="M53.1318 44.7639C53.1318 45.6542 52.4101 46.3767 51.5184 46.3767H28.5225C27.6319 46.3767 26.9091 45.6542 26.9091 44.7639C26.9091 43.8727 27.6318 43.1512 28.5225 43.1512H51.5184C52.41 43.1512 53.1318 43.8727 53.1318 44.7639Z" fill="#596C76"/>
<path d="M53.1318 59.4782C53.1318 60.3684 52.4101 61.0909 51.5184 61.0909H28.5225C27.6318 61.0909 26.9091 60.3684 26.9091 59.4782C26.9091 58.588 27.6318 57.8655 28.5225 57.8655H51.5184C52.41 57.8655 53.1318 58.588 53.1318 59.4782Z" fill="#596C76"/>
<path d="M44.408 37.4358C44.408 38.326 43.6852 39.0485 42.7947 39.0485H37.2472C36.3567 39.0485 35.6339 38.326 35.6339 37.4358C35.6339 36.5456 36.3566 35.8231 37.2472 35.8231H42.7948C43.6853 35.8231 44.408 36.5456 44.408 37.4358Z" fill="white"/>
<path d="M44.408 52.1125C44.408 53.0027 43.6852 53.7252 42.7947 53.7252H37.2472C36.3567 53.7252 35.6339 53.0027 35.6339 52.1125C35.6339 51.2212 36.3566 50.4998 37.2472 50.4998H42.7948C43.6853 50.4998 44.408 51.2212 44.408 52.1125Z" fill="white"/>
<path d="M42.7948 53.7252H40.0209V50.4998H42.7948C43.6853 50.4998 44.4081 51.2212 44.4081 52.1125C44.408 53.0027 43.6853 53.7252 42.7948 53.7252Z" fill="#F3EEE9"/>
<path d="M42.7948 39.0485H40.0209V35.8231H42.7948C43.6853 35.8231 44.4081 36.5456 44.4081 37.4358C44.4081 38.326 43.6853 39.0485 42.7948 39.0485Z" fill="#F3EEE9"/>
<path d="M53.1318 59.4782C53.1318 60.3684 52.4101 61.0909 51.5184 61.0909H40.0209V57.8655H51.5184C52.41 57.8655 53.1318 58.588 53.1318 59.4782Z" fill="#465A61"/>
<path d="M53.1318 44.7639C53.1318 45.6542 52.4101 46.3767 51.5184 46.3767H40.0209V43.1512H51.5184C52.41 43.1512 53.1318 43.8727 53.1318 44.7639Z" fill="#465A61"/>
<path d="M51.5184 31.6623H40.0209V28.4369H51.5184C52.41 28.4369 53.1318 29.1583 53.1318 30.0496C53.1318 30.9398 52.41 31.6623 51.5184 31.6623Z" fill="#465A61"/>
</svg>
