<svg width="80" height="80" viewBox="0 0 80 80" fill="none" xmlns="http://www.w3.org/2000/svg">
<circle cx="40" cy="40" r="40" fill="#06942A" fill-opacity="0.1"/>
<path d="M56.9737 46.2995C55.8749 49.2774 54.2132 51.8667 52.034 53.9948C49.5535 56.4169 46.3055 58.3416 42.38 59.7145C42.2512 59.7594 42.1168 59.7962 41.9817 59.8234C41.8033 59.8586 41.6218 59.8776 41.4419 59.8801H41.4066C41.2148 59.8801 41.0221 59.8608 40.8309 59.8234C40.6958 59.7962 40.5633 59.7594 40.4351 59.7155C36.5049 58.3447 33.2529 56.421 30.7699 53.9988C28.5898 51.8708 26.9283 49.283 25.8311 46.3051C23.8359 40.8907 23.9495 34.9261 24.0408 30.1329L24.0424 30.0593C24.0608 29.6635 24.0727 29.2478 24.0792 28.7887C24.1126 26.5346 25.9047 24.6698 28.1591 24.5442C32.8592 24.2819 36.4953 22.7489 39.602 19.7208L39.6292 19.6958C40.145 19.2227 40.795 18.9906 41.4419 19.0003C42.0656 19.0084 42.6869 19.2401 43.1844 19.6958L43.2109 19.7208C46.3183 22.7489 49.9543 24.2819 54.6545 24.5442C56.9088 24.6698 58.701 26.5346 58.7343 28.7887C58.7409 29.2509 58.7527 29.666 58.7711 30.0593L58.7721 30.0905C58.8632 34.8927 58.9761 40.8691 56.9737 46.2995Z" fill="#76C48A"/>
<path d="M56.9736 46.2994C55.8748 49.2774 54.2131 51.8667 52.0339 53.9947C49.5534 56.4169 46.3054 58.3415 42.3799 59.7145C42.2511 59.7594 42.1167 59.7962 41.9816 59.8233C41.8032 59.8586 41.6217 59.8776 41.4418 59.8801V19.0002C42.0655 19.0084 42.6868 19.2401 43.1843 19.6958L43.2108 19.7207C46.3182 22.7489 49.9542 24.2818 54.6544 24.5441C56.9087 24.6698 58.7009 26.5346 58.7342 28.7886C58.7408 29.2509 58.7526 29.666 58.771 30.0593L58.772 30.0905C58.863 34.8926 58.9759 40.8691 56.9736 46.2994Z" fill="#06942A"/>
<path d="M51.5942 39.4399C51.5942 45.0455 47.0427 49.6085 41.4418 49.6285H41.4059C35.7885 49.6285 31.2174 45.0577 31.2174 39.4399C31.2174 33.8225 35.7885 29.2517 41.4059 29.2517H41.4418C47.0427 29.2717 51.5942 33.8346 51.5942 39.4399Z" fill="white"/>
<path d="M51.5941 39.4399C51.5941 45.0455 47.0427 49.6085 41.4418 49.6285V29.2517C47.0427 29.2717 51.5941 33.8346 51.5941 39.4399Z" fill="#E1EBF0"/>
<path d="M46.0304 37.9729L41.4418 42.5621L40.4503 43.5536C40.2161 43.7878 39.9089 43.9048 39.602 43.9048C39.2948 43.9048 38.9879 43.7878 38.7533 43.5536L36.6216 41.4209C36.1531 40.9524 36.1531 40.1936 36.6216 39.7248C37.0894 39.2564 37.8492 39.2564 38.3176 39.7248L39.602 41.0092L44.3343 36.2769C44.8028 35.8081 45.5625 35.8081 46.0304 36.2769C46.4988 36.7453 46.4988 37.5051 46.0304 37.9729Z" fill="#596C76"/>
<path d="M46.0303 37.9729L41.4418 42.5621V39.169L44.3342 36.2769C44.8027 35.8081 45.5625 35.8081 46.0303 36.2769C46.4988 36.7453 46.4988 37.5051 46.0303 37.9729Z" fill="#465A61"/>
</svg>
