<svg width="40" height="39" viewBox="0 0 40 39" fill="none" xmlns="http://www.w3.org/2000/svg">
<circle cx="19.5653" cy="19.5" r="19.5" fill="#06942A" fill-opacity="0.1"/>
<g clip-path="url(#clip0)">
<path d="M26.3986 13.9999C25.7602 14.4502 25.0534 14.7946 24.3053 15.0199C23.9038 14.5582 23.3702 14.231 22.7767 14.0825C22.1831 13.934 21.5583 13.9713 20.9867 14.1895C20.4151 14.4077 19.9243 14.7961 19.5806 15.3023C19.237 15.8086 19.0571 16.4081 19.0653 17.0199V17.6865C17.8937 17.7169 16.7328 17.4571 15.686 16.9302C14.6391 16.4033 13.7389 15.6256 13.0653 14.6665C13.0653 14.6665 10.3986 20.6665 16.3986 23.3332C15.0257 24.2652 13.3901 24.7325 11.732 24.6665C17.732 27.9999 25.0653 24.6665 25.0653 16.9999C25.0647 16.8142 25.0468 16.6289 25.012 16.4465C25.6924 15.7755 26.1725 14.9283 26.3986 13.9999V13.9999Z" stroke="#06942A" stroke-width="1.2" stroke-linecap="round" stroke-linejoin="round"/>
</g>
<defs>
<clipPath id="clip0">
<rect width="16" height="16" fill="white" transform="translate(11.0653 12)"/>
</clipPath>
</defs>
</svg>
